# xmcd CD database file
#
# Track frame offsets:
#	150
#	16796
#	40323
#	56841
#	75405
#	113307
#	129837
#	138963
#	167373
#	184591
#	203791
#
# Disc length: 2893 seconds
#
# Revision: 0
# Processed by: cddbd v1.5.2PL0 Copyright (c) Steve Scherf et al.
# Submitted via: CDex 1.79
#
DISCID=7a0b4b0b
DTITLE=Joe Lovano - Trio Tapestry
DYEAR=2019
DGENRE=Jazz
TTITLE0=One Time In
TTITLE1=Speed Of Change
TTITLE2=Razzle Dazzle
TTITLE3=Sparkle Lights
TTITLE4=Mystic
TTITLE5=Piano - Drum Episode
TTITLE6=Gong Episone
TTITLE7=Rarae Beauty
TTITLE8=Spirit Lake
TTITLE9=Tarassa
TTITLE10=The Smiling Dog
EXTD=YEAR: 2019
EXTT0=
EXTT1=
EXTT2=
EXTT3=
EXTT4=
EXTT5=
EXTT6=
EXTT7=
EXTT8=
EXTT9=
EXTT10=
PLAYORDER=
